<?xml version="1.0" standalone="no"?>
<!DOCTYPE svg PUBLIC "-//W3C//DTD SVG 20010904//EN"
 "http://www.w3.org/TR/2001/REC-SVG-20010904/DTD/svg10.dtd">
<svg version="1.0" xmlns="http://www.w3.org/2000/svg"
 width="437.000000pt" height="438.000000pt" viewBox="0 0 437.000000 438.000000"
 preserveAspectRatio="xMidYMid meet">

<g transform="translate(0.000000,438.000000) scale(0.100000,-0.100000)"
fill="#000000" stroke="none">
<path d="M1180 4111 c-95 -26 -166 -67 -241 -141 -104 -103 -159 -233 -159
-380 0 -148 54 -276 161 -381 l67 -66 -119 -123 c-66 -68 -116 -126 -112 -131
16 -15 264 -90 478 -144 321 -81 610 -120 890 -120 343 0 726 53 1195 167 143
34 260 70 260 79 0 4 -62 71 -138 149 l-137 143 55 56 c158 162 195 422 88
624 -40 76 -144 182 -217 221 -202 108 -455 78 -624 -74 -64 -57 -123 -148
-145 -222 -9 -32 -21 -58 -27 -58 -5 0 -41 7 -80 16 -124 27 -228 28 -350 6
-60 -11 -123 -25 -138 -31 -16 -6 -30 -11 -32 -11 -2 0 -13 31 -25 69 -24 82
-83 175 -148 232 -138 121 -329 167 -502 120z m344 -84 c105 -53 181 -128 232
-232 l39 -80 0 -125 c0 -124 -1 -126 -38 -202 -51 -106 -127 -183 -232 -234
l-80 -39 -126 0 c-124 0 -126 0 -200 37 -128 64 -201 142 -254 273 -25 60 -29
84 -29 165 0 81 4 105 28 165 48 119 131 212 235 265 90 45 112 50 232 47 111
-2 118 -3 193 -40z m1669 0 c124 -62 212 -160 256 -289 79 -224 -31 -474 -255
-585 -78 -38 -78 -38 -204 -38 l-126 0 -80 39 c-106 53 -182 129 -232 233 -37
77 -37 79 -37 203 0 123 1 126 36 200 60 124 141 200 277 257 51 21 69 23 173
21 111 -3 118 -4 192 -41z"/>
<path d="M1141 3724 c-35 -8 -93 -28 -128 -46 l-66 -32 34 -28 c122 -102 435
-108 627 -11 29 15 55 30 57 34 8 12 -144 69 -223 84 -94 18 -215 18 -301 -1z"/>
<path d="M2824 3726 c-68 -14 -194 -69 -194 -85 0 -13 73 -56 128 -75 113 -40
289 -40 417 0 63 19 165 65 165 74 0 11 -108 57 -175 75 -79 22 -263 28 -341
11z"/>
<path d="M776 2779 c15 -24 63 -89 106 -145 348 -450 827 -701 1298 -681 412
18 785 189 1124 517 95 91 256 281 256 300 0 6 -9 6 -24 0 -67 -25 -551 -134
-664 -150 -37 -5 -125 -18 -197 -29 -71 -10 -225 -25 -341 -32 -404 -24 -796
27 -1279 167 -160 46 -258 77 -289 89 -15 7 -13 0 10 -36z"/>
<path d="M166 2739 c-176 -30 -103 -382 175 -855 71 -120 147 -234 307 -456
73 -103 131 -192 127 -198 -4 -6 5 -10 23 -10 16 0 44 -3 62 -7 l33 -6 -33 59
c-18 32 -81 126 -139 207 -239 335 -305 442 -331 536 -16 60 7 119 64 166 57
47 232 128 380 177 67 22 127 43 135 48 31 17 -415 252 -584 308 -99 33 -160
42 -219 31z"/>
<path d="M4048 2739 c-77 -11 -228 -68 -378 -145 -169 -85 -334 -184 -324
-193 5 -4 72 -43 149 -85 319 -178 455 -294 455 -389 0 -77 -141 -277 -419
-595 -83 -95 -151 -177 -151 -182 0 -24 255 -119 375 -141 219 -39 288 -65
329 -126 l23 -34 15 23 c27 41 29 62 9 95 -25 41 -146 100 -301 148 -111 35
-154 55 -117 55 10 0 70 -12 135 -27 195 -45 327 -35 397 31 32 30 35 38 35
88 0 45 -5 60 -25 82 -40 44 -97 34 -284 -49 -90 -40 -231 -65 -365 -65 -58 0
-67 2 -62 16 3 8 73 109 156 223 189 264 274 397 370 587 88 173 128 272 159
393 25 101 27 166 5 220 -26 66 -77 85 -186 70z"/>
<path d="M900 2299 c-80 -27 -156 -53 -170 -58 -39 -13 -190 -91 -223 -114
-16 -12 -35 -34 -43 -49 -29 -56 27 -160 266 -493 86 -121 169 -242 184 -270
15 -27 43 -76 63 -108 33 -54 35 -60 20 -74 -15 -15 -26 -15 -136 5 -129 24
-220 27 -291 11 -72 -16 -224 -77 -249 -100 -31 -29 -22 -83 21 -123 30 -27
35 -28 97 -23 91 8 221 48 384 118 77 32 147 59 158 59 34 0 20 -18 -28 -35
-93 -34 -170 -76 -211 -116 -60 -60 -155 -253 -156 -316 l-1 -48 39 -3 c58 -5
174 57 254 135 53 52 72 80 121 185 32 67 61 131 64 141 8 22 35 19 50 -5 8
-12 6 -48 -8 -130 -35 -208 -19 -322 50 -355 29 -14 40 -15 75 -4 52 15 76 40
90 90 15 55 -7 137 -80 297 -34 76 -37 96 -14 115 34 28 158 -19 422 -160 129
-70 201 -96 237 -87 22 6 25 11 25 54 0 64 -38 138 -99 195 -67 62 -98 69
-262 56 -147 -11 -296 -4 -346 16 -42 18 -65 65 -143 295 -65 192 -90 251
-192 453 l-60 121 53 -60 c228 -257 484 -436 768 -536 111 -38 150 -47 308
-66 119 -14 145 -14 280 1 81 8 180 23 219 31 295 66 648 239 924 452 66 52
120 90 120 87 0 -4 -40 -77 -89 -163 -49 -85 -101 -182 -116 -215 -54 -118
-61 -129 -107 -176 -59 -59 -128 -93 -188 -92 -25 1 -90 9 -145 18 -157 27
-208 20 -340 -51 -122 -66 -137 -86 -89 -123 23 -18 40 -21 114 -21 87 0 144
9 330 50 52 12 118 26 147 33 29 6 56 8 59 4 22 -21 -159 -144 -263 -179 -32
-10 -110 -28 -173 -38 -89 -15 -132 -28 -190 -57 -117 -60 -127 -107 -41 -193
135 -135 210 -116 444 108 160 154 252 222 300 222 26 0 46 -15 122 -92 106
-109 183 -222 249 -368 80 -176 134 -254 187 -273 26 -9 92 29 119 70 21 31
25 48 25 109 -1 65 -4 78 -31 116 -17 26 -64 66 -115 100 -95 64 -290 260
-274 276 9 9 79 -17 132 -50 28 -18 85 -56 127 -85 147 -101 345 -151 375 -94
15 28 -7 108 -39 140 -31 30 -77 45 -243 75 -169 32 -382 113 -444 169 -48 43
-40 58 152 272 238 265 405 495 405 558 0 29 -103 128 -201 192 -54 36 -101
65 -105 65 -3 0 -18 8 -32 19 -15 10 -79 46 -143 80 l-117 61 -53 -45 c-129
-110 -322 -229 -484 -298 -78 -33 -231 -81 -290 -91 -16 -3 -52 -10 -80 -16
-99 -20 -313 -23 -420 -6 -143 22 -151 24 -245 52 -203 61 -459 211 -625 365
l-40 37 -145 -49z"/>
<path d="M93 1442 c-16 -10 -33 -57 -33 -90 0 -93 74 -187 172 -217 52 -17 55
-17 94 3 92 47 225 84 323 91 87 6 92 7 52 14 -151 26 -287 69 -355 111 -142
88 -214 113 -253 88z"/>
<path d="M193 1038 c-45 -32 -59 -69 -44 -118 14 -48 53 -80 97 -80 63 0 67 8
30 52 -35 40 -54 108 -41 148 8 26 -3 25 -42 -2z"/>
</g>
</svg>
